PathFileType	4	(X/Y/Z)	C:/Users/beibeiliu/ov580/test_trc/User3\out1_training_dense_right.trc
DataRate	CameraRate	NumFrames	NumMarkers	Units	OrigDataRate	OrigDataStartFrame	OrigNumFrames
120	120	8	19	mm	120	313	500
Frame#	Time	ThumbCMC			ThumbMCP			ThumbIP			ThumbTip			IndexMCP			IndexPIP			IndexTip			MiddleMCP			MiddlePIP			MiddleTip			RingMCP			RingPIP			RingTip			PinkyMCP			PinkyPIP			PinkyTip			BackHand1			BackHand2			BackHand3	
		X0	Y0	Z0	X1	Y1	Z1	X2	Y2	Z2	X3	Y3	Z3	X4	Y4	Z4	X5	Y5	Z5	X6	Y6	Z6	X7	Y7	Z7	X8	Y8	Z8	X9	Y9	Z9	X10	Y10	Z10	X11	Y11	Z11	X12	Y12	Z12	X13	Y13	Z13	X14	Y14	Z14	X15	Y15	Z15	X16	Y16	Z16	X17	Y17	Z17	X18	Y18	Z18	
312	2.6	197.438	78.5447	71.0745	183.856	89.4525	41.6553	172.497	94.5482	11.43	161.496	86.1063	-9.92171	211.568	63.5229	-5.09023	190.382	69.897	-26.0542	165.862	79.6702	-29.6145	209.598	41.0652	-8.59539	191.133	49.5048	-34.5399	159.524	62.7807	-41.7179	200.383	20.6705	-3.14661	185.543	26.6518	-25.8429	157.099	41.7316	-35.6362	186.608	6.27833	11.8805	173.245	9.24212	-9.58451	149.168	19.5106	-23.4094	211.482	13.7879	55.477	209.523	18.3645	81.2835	224.932	48.5166	65.7187	
313	2.60833	196.931	77.9987	68.0794	181.777	93.3196	41.4638	171.052	96.9328	12.5306	159.341	91.6233	-10.3008	209.828	61.8022	-2.56055	189.256	74.7571	-25.2768	162.855	81.6474	-28.4904	208.839	38.0201	-9.75278	191.74	47.6997	-34.5241	161.345	61.9192	-45.8658	201.116	19.3426	0.863457	187.412	24.6248	-26.2914	160.789	37.218	-37.4959	187.142	6.03672	11.6038	175.215	10.4304	-11.5764	153.18	16.069	-23.7929	212.118	18.8204	51.6776	207.999	15.165	85.7849	222.208	47.8744	66.7793	
314	2.61667	195.365	85.1734	71.1848	179.878	93.9221	43.0116	169.709	95.8414	9.82574	158.742	92.8131	-10.8319	209.786	67.2953	-6.01674	191.274	76.1842	-25.8405	161.927	81.7954	-28.6727	211.141	43.3441	-9.34999	192.718	52.1214	-37.5128	163.581	58.238	-47.5271	202.663	23.7167	-1.50374	190.688	29.3282	-26.4697	162.404	41.0166	-39.9186	190.044	11.291	14.0692	178.317	11.5114	-10.661	159.05	21.2302	-25.972	211.556	19.1305	51.6348	209.234	23.3526	81.9496	221.7	54.2735	66.7426	
315	2.625	193.644	83.8952	71.7321	178.402	95.4771	42.8256	168.33	98.6106	12.8487	157.214	99.7077	-10.1267	210.743	68.1404	-4.03842	192.824	73.2374	-25.899	160.09	83.8229	-31.405	213.039	47.2964	-7.58406	194.302	51.0615	-37.126	165.159	63.2614	-47.3183	204.667	25.2882	-4.22455	192.603	29.7595	-26.485	163.397	42.1107	-40.2527	192.418	10.3856	9.5752	180.407	13.3635	-11.8067	156.082	20.8139	-26.8287	214.67	23.4632	51.3479	209.293	23.7592	83.3279	223.333	55.3691	65.4766	
316	2.63333	192.428	86.1907	72.2429	177.612	93.3151	40.9751	166.863	101.455	15.5702	156.806	99.7936	-9.77574	211.326	73.8706	-5.67266	191.172	79.2252	-27.7362	162.859	81.132	-32.3142	213.518	52.8499	-8.80955	197.71	54.939	-33.9081	161.998	61.0634	-44.4897	206.821	31.303	-2.63846	192.174	31.4296	-27.9092	160.295	39.4474	-37.5579	195.79	12.8192	9.67568	186.098	11.806	-10.042	160.337	19.2562	-26.541	215.849	26.3089	56.4192	212.977	24.8256	86.5439	223.23	61.0318	66.2165	
317	2.64167	188.396	87.6525	70.2553	174.223	99.1525	40.0446	163.72	103.635	10.6598	156.928	95.3708	-7.83825	211.103	77.0587	-3.53975	193.625	80.1222	-25.948	165.281	83.6446	-32.1392	212.768	55.4458	-10.3519	192.399	57.1446	-33.3119	156.195	62.7051	-37.4328	209.036	38.1405	2.25066	190.323	36.0641	-27.3964	159.149	44.6819	-31.3783	199.62	14.8559	13.0773	188.856	15.2363	-10.7576	165.764	25.148	-23.0556	218.806	28.9918	52.6967	214.811	27.3135	84.2294	219.878	64.4062	66.7611	
318	2.65	185.299	90.5844	69.5972	169.683	99.2431	44.1606	161.11	102.449	11.811	153.733	96.8344	-7.92149	208.873	81.2871	-1.71271	188.606	82.3694	-26.2863	158.647	83.0872	-31.4372	212.025	61.1098	-8.60837	192.422	65.9034	-31.3646	151.934	65.0209	-31.712	209.612	41.3372	1.53276	190.643	44.0613	-26.8322	158.041	49.3612	-25.8703	203.348	19.7881	12.3001	191.244	16.7853	-11.4354	166.588	28.3505	-21.4159	218.832	40.0392	54.8695	213.981	35.0257	82.8261	217.39	67.4869	67.5785	
319	2.65833	177.283	93.8404	74.4386	165.515	100.46	42.1734	157.325	106.603	12.8746	150.303	101.487	-9.64543	207.48	88.2326	2.04511	190.433	89.5181	-24.2029	156.285	89.3946	-29.652	212.366	72.5748	-4.76762	188.645	71.9518	-31.6498	154.471	68.3887	-25.9521	211.958	52.5926	-2.62899	192.664	46.1789	-25.137	158.076	48.3686	-17.2214	206.594	27.8018	13.4281	195.778	25.7126	-11.5319	169.884	32.0278	-19.4015	219.999	47.1088	54.2626	215.04	38.8353	85.4984	213.752	75.2526	70.4348	
